<svg width="1024" height="1024" viewBox="0 0 1024 1024" fill="none" xmlns="http://www.w3.org/2000/svg">
<g clip-path="url(#clip0_1_2)">
<rect width="1024" height="1024" rx="240" fill="#FF9C1C"/>
<path d="M150.807 516.79V482.443C181.645 482.443 203.158 475.98 215.345 463.054C227.717 450.128 233.903 428.523 233.903 398.239V309.602C233.903 284.119 236.304 262.053 241.105 243.402C246.091 224.751 254.124 209.332 265.203 197.145C276.283 184.957 291.055 175.909 309.521 170C327.987 164.091 350.793 161.136 377.938 161.136V215.426C356.517 215.426 339.621 218.75 327.249 225.398C315.061 232.045 306.382 242.386 301.212 256.42C296.226 270.27 293.733 287.997 293.733 309.602V420.398C293.733 434.801 291.794 447.912 287.916 459.73C284.223 471.548 277.298 481.705 267.142 490.199C256.986 498.693 242.49 505.249 223.655 509.865C205.004 514.482 180.722 516.79 150.807 516.79ZM377.938 870.227C350.793 870.227 327.987 867.273 309.521 861.364C291.055 855.455 276.283 846.406 265.203 834.219C254.124 822.031 246.091 806.612 241.105 787.962C236.304 769.311 233.903 747.244 233.903 721.761V633.125C233.903 602.841 227.717 581.236 215.345 568.31C203.158 555.384 181.645 548.92 150.807 548.92V514.574C180.722 514.574 205.004 516.882 223.655 521.499C242.49 526.115 256.986 532.67 267.142 541.165C277.298 549.659 284.223 559.815 287.916 571.634C291.794 583.452 293.733 596.562 293.733 610.966V721.761C293.733 743.366 296.226 761.094 301.212 774.943C306.382 788.793 315.061 799.041 327.249 805.689C339.621 812.521 356.517 815.938 377.938 815.938V870.227ZM150.807 548.92V482.443H216.176V548.92H150.807ZM512.069 759.432C498.404 759.432 486.679 754.538 476.892 744.751C467.105 734.964 462.211 723.239 462.211 709.574C462.211 695.909 467.105 684.183 476.892 674.396C486.679 664.609 498.404 659.716 512.069 659.716C525.734 659.716 537.46 664.609 547.247 674.396C557.034 684.183 561.927 695.909 561.927 709.574C561.927 718.622 559.619 726.932 555.002 734.503C550.571 742.074 544.569 748.168 536.998 752.784C529.612 757.216 521.302 759.432 512.069 759.432ZM873.124 514.574V548.92C842.286 548.92 820.681 555.384 808.309 568.31C796.121 581.236 790.027 602.841 790.027 633.125V721.761C790.027 747.244 787.534 769.311 782.549 787.962C777.748 806.612 769.807 822.031 758.728 834.219C747.648 846.406 732.875 855.455 714.409 861.364C695.944 867.273 673.138 870.227 645.993 870.227V815.938C667.414 815.938 684.218 812.521 696.405 805.689C708.777 799.041 717.456 788.793 722.442 774.943C727.613 761.094 730.198 743.366 730.198 721.761V610.966C730.198 596.562 732.044 583.452 735.738 571.634C739.615 559.815 746.632 549.659 756.789 541.165C766.945 532.67 781.348 526.115 799.999 521.499C818.834 516.882 843.209 514.574 873.124 514.574ZM645.993 161.136C673.138 161.136 695.944 164.091 714.409 170C732.875 175.909 747.648 184.957 758.728 197.145C769.807 209.332 777.748 224.751 782.549 243.402C787.534 262.053 790.027 284.119 790.027 309.602V398.239C790.027 428.523 796.121 450.128 808.309 463.054C820.681 475.98 842.286 482.443 873.124 482.443V516.79C843.209 516.79 818.834 514.482 799.999 509.865C781.348 505.249 766.945 498.693 756.789 490.199C746.632 481.705 739.615 471.548 735.738 459.73C732.044 447.912 730.198 434.801 730.198 420.398V309.602C730.198 287.997 727.613 270.27 722.442 256.42C717.456 242.386 708.777 232.045 696.405 225.398C684.218 218.75 667.414 215.426 645.993 215.426V161.136ZM873.124 482.443V548.92H807.755V482.443H873.124Z" fill="white"/>
</g>
<defs>
<clipPath id="clip0_1_2">
<rect width="1024" height="1024" rx="240" fill="white"/>
</clipPath>
</defs>
</svg>
